<svg width="50" height="53" viewBox="0 0 50 57" fill="none" xmlns="http://www.w3.org/2000/svg">
<rect x="0.5" y="7.5" width="49" height="49" stroke="#C6C3C3"/>
<path d="M39.2056 25.5726C39.0449 24.9589 38.7303 24.3994 38.2932 23.9501C37.8561 23.5007 37.3119 23.1773 36.715 23.0121C34.5168 22.4005 25.6838 22.4005 25.6838 22.4005C25.6838 22.4005 16.8508 22.4005 14.6527 23.0121C14.0558 23.1773 13.5115 23.5007 13.0745 23.9501C12.6374 24.3994 12.3227 24.9589 12.1621 25.5726C11.7516 27.8772 11.5525 30.2164 11.5672 32.5593C11.5525 34.9023 11.7516 37.2414 12.1621 39.5461C12.3227 40.1597 12.6374 40.7192 13.0745 41.1686C13.5115 41.6179 14.0558 41.9414 14.6527 42.1065C16.8508 42.7181 25.6838 42.7181 25.6838 42.7181C25.6838 42.7181 34.5168 42.7181 36.715 42.1065C37.3119 41.9414 37.8561 41.6179 38.2932 41.1686C38.7303 40.7192 39.0449 40.1597 39.2056 39.5461C39.616 37.2414 39.8152 34.9023 39.8005 32.5593C39.8152 30.2164 39.616 27.8772 39.2056 25.5726ZM22.8605 36.9131V28.2055L30.1911 32.5593L22.8605 36.9131Z" fill="#B9B7B7"/>
</svg>
